# File created by Blade
# Date/Time:  Wed Jan 21 16:09:50 2015
#---------------------------------------------------------
:version 1.10
:name HOM
:units
  mass 1.0
  length 1.000000
  angle deg
:documentation
     Acclaim Skeleton File
:root
   axis xyz
   order TX TY TZ RX RY RZ
   position 0.000000 0.000000 0.000000
   orientation 0 0 0
:bonedata
   begin
      id 1
      name Spine_dum
      direction 0.000000 1.000000 0.000000
      length 7.067664
      axis 0.0 0.0 0.0 xyz
   end
   begin
      id 2
      name LeftUpLeg_dum
      direction 1.000000 0.000000 0.000000
      length 4.013002
      axis 0.0 0.0 0.0 xyz
   end
   begin
      id 3
      name RightUpLeg_dum
      direction -1.000000 0.000000 0.000000
      length 4.013002
      axis 0.0 0.0 0.0 xyz
   end
   begin
      id 4
      name Spine
      direction 0.000000 1.000000 0.000000
      length 0.000000
      axis 0.0 0.0 0.0 xyz
      dof rx ry rz
   end
   begin
      id 5
      name Spine_dum1
      direction 0.000000 1.000000 0.000000
      length 15.039886
      axis 0.0 0.0 0.0 xyz
   end
   begin
      id 6
      name Spine_dum2
      direction 0.000000 1.000000 0.000000
      length 10.530368
      axis 0.0 0.0 0.0 xyz
   end
   begin
      id 7
      name Spine_dum3
      direction 0.000000 1.000000 0.000000
      length 10.530368
      axis 0.0 0.0 0.0 xyz
   end
   begin
      id 8
      name Head
      direction 0.000000 1.000000 0.000000
      length 4.527550
      axis 0.0 0.0 0.0 xyz
      dof rx ry rz
   end
   begin
      id 9
      name LeftShoulder
      direction 1.000000 0.000000 0.000000
      length 7.028855
      axis 0.0 0.0 -90.0 xyz
      dof rx ry rz
   end
   begin
      id 10
      name LeftArm
      direction 1.000000 0.000000 0.000000
      length 10.797705
      axis 0.0 0.0 -90.0 xyz
      dof rx ry rz
   end
   begin
      id 11
      name LeftForeArm
      direction 1.000000 0.000000 0.000000
      length 7.907442
      axis 0.0 0.0 -90.0 xyz
      dof ry rz rx
   end
   begin
      id 12
      name LeftHand
      direction 0.000000 0.000000 0.000000
      length 0.000000
      axis 0.0 0.0 -90.0 xyz
      dof rx ry rz
   end
   begin
      id 13
      name LeftHand_dum1
      direction 0.000000 0.000000 0.000000
      length 0.000000
      axis 0.0 0.0 -90.0 xyz
   end
   begin
      id 14
      name LeftHand_dum2
      direction 1.000000 0.000000 0.000000
      length 3.937000
      axis 0.0 0.0 -90.0 xyz
   end
   begin
      id 15
      name LeftHandThumb1
      direction 0.000000 0.000000 1.000000
      length 3.937000
      axis 0.0 0.0 -90.0 xyz
      dof rx rz ry
   end
   begin
      id 16
      name RightShoulder
      direction -1.000000 0.000000 0.000000
      length 7.028855
      axis 0.0 0.0 90.0 xyz
      dof rx ry rz
   end
   begin
      id 17
      name RightArm
      direction -1.000000 0.000000 0.000000
      length 10.797705
      axis 0.0 0.0 90.0 xyz
      dof rx ry rz
   end
   begin
      id 18
      name RightForeArm
      direction -1.000000 0.000000 0.000000
      length 7.907442
      axis 0.0 0.0 90.0 xyz
      dof ry rz rx
   end
   begin
      id 19
      name RightHand
      direction 0.000000 0.000000 0.000000
      length 0.000000
      axis 0.0 0.0 90.0 xyz
      dof rx ry rz
   end
   begin
      id 20
      name RightHand_dum1
      direction 0.000000 0.000000 0.000000
      length 0.000000
      axis 0.0 0.0 90.0 xyz
   end
   begin
      id 21
      name RightHand_dum2
      direction -1.000000 0.000000 0.000000
      length 3.937000
      axis 0.0 0.0 90.0 xyz
   end
   begin
      id 22
      name RightHandThumb1
      direction 0.000000 0.000000 1.000000
      length 3.937000
      axis 0.0 0.0 90.0 xyz
      dof rx rz ry
   end
   begin
      id 23
      name LeftUpLeg
      direction 0.000000 -1.000000 0.000000
      length 16.899758
      axis 0.0 0.0 0.0 xyz
      dof rx ry rz
   end
   begin
      id 24
      name LeftLeg
      direction 0.000000 -1.000000 0.000000
      length 17.389183
      axis 0.0 0.0 0.0 xyz
      dof rx ry rz
   end
   begin
      id 25
      name LeftFoot
      direction 0.000000 -0.258819 0.965926
      length 4.924528
      axis 15.0 0.0 0.0 xyz
      dof rx ry rz
   end
   begin
      id 26
      name LeftToeBase
      direction 0.000000 0.000000 1.000000
      length 2.952750
      axis 0.0 0.0 0.0 xyz
      dof rx ry rz
   end
   begin
      id 27
      name RightUpLeg
      direction 0.000000 -1.000000 0.000000
      length 16.899758
      axis 0.0 0.0 0.0 xyz
      dof rx ry rz
   end
   begin
      id 28
      name RightLeg
      direction 0.000000 -1.000000 0.000000
      length 17.389183
      axis 0.0 0.0 0.0 xyz
      dof rx ry rz
   end
   begin
      id 29
      name RightFoot
      direction 0.000000 -0.258819 0.965926
      length 4.924528
      axis 15.0 0.0 0.0 xyz
      dof rx ry rz
   end
   begin
      id 30
      name RightToeBase
      direction 0.000000 0.000000 1.000000
      length 2.952750
      axis 0.0 0.0 0.0 xyz
      dof rx ry rz
   end
:hierarchy
   begin
      root Spine_dum LeftUpLeg_dum RightUpLeg_dum
      Spine_dum Spine
      LeftUpLeg_dum LeftUpLeg
      RightUpLeg_dum RightUpLeg
      Spine Spine_dum1 Spine_dum2 Spine_dum3
      Spine_dum1 Head
      Spine_dum2 LeftShoulder
      Spine_dum3 RightShoulder
      LeftShoulder LeftArm
      LeftArm LeftForeArm
      LeftForeArm LeftHand
      LeftHand LeftHand_dum1 LeftHand_dum2
      LeftHand_dum1 LeftHandThumb1
      RightShoulder RightArm
      RightArm RightForeArm
      RightForeArm RightHand
      RightHand RightHand_dum1 RightHand_dum2
      RightHand_dum1 RightHandThumb1
      LeftUpLeg LeftLeg
      LeftLeg LeftFoot
      LeftFoot LeftToeBase
      RightUpLeg RightLeg
      RightLeg RightFoot
      RightFoot RightToeBase
   end

# File created by Blade
# Date/Time:  Wed Jan 21 16:09:38 2015
# Frame Rate: 120.000 fps
#------------------------------------------------------
:FULLY-SPECIFIED
:DEGREES
93
root 19.153801 35.328223 -21.255924 -175.682354 17.381762 -173.159499
Spine -3.626269 4.822088 8.248799
Head 24.088838 -24.094048 3.844213
LeftShoulder -16.848512 -29.128653 14.204334
LeftArm -20.360492 -2.261395 -28.092613
LeftForeArm 6.853324 -0.000000 -1.845887
LeftHand -8.616681 -0.000000 -2.534667
LeftHandThumb1 -26.253704 0.000000 33.147579
RightShoulder -14.285390 -8.895203 -3.073081
RightArm 18.152895 37.071136 37.063765
RightForeArm -31.726559 -0.000000 4.987295
RightHand -4.981282 -0.000000 1.593900
RightHandThumb1 -24.326973 -0.000000 -32.862282
LeftUpLeg 10.589264 15.186093 9.066981
LeftLeg -11.771031 -0.000000 0.000000
LeftFoot 1.391327 31.542354 12.368191
LeftToeBase -133.768562 -0.000000 0.000000
RightUpLeg -9.817829 0.641879 4.695703
RightLeg 16.113089 -0.000000 -0.000000
RightFoot -21.868524 -31.265323 14.350271
RightToeBase 19.270605 -0.000000 -0.000000
94
root 19.177824 35.321367 -21.241233 -175.578522 18.082993 -173.138959
Spine -3.447289 4.868511 8.288883
Head 24.377315 -24.445889 3.803218
LeftShoulder -16.990475 -29.068901 14.152772
LeftArm -20.796684 -2.276960 -28.500080
LeftForeArm 6.680981 0.000000 -1.845908
LeftHand -8.642860 -0.000000 -2.463717
LeftHandThumb1 -26.253704 0.000000 33.147579
RightShoulder -14.267771 -8.913379 -2.996598
RightArm 18.139736 36.982270 37.423155
RightForeArm -32.078764 -0.000000 5.015892
RightHand -4.841947 -0.000000 1.601348
RightHandThumb1 -24.326973 -0.000000 -32.862282
LeftUpLeg 10.633793 15.598690 9.069274
LeftLeg -11.679183 -0.000000 0.000000
LeftFoot 1.419696 31.816756 12.369002
LeftToeBase -133.497362 -0.000000 0.000000
RightUpLeg -10.101100 0.390678 4.925323
RightLeg 16.241100 -0.000000 -0.000000
RightFoot -21.898662 -31.542311 14.391308
RightToeBase 18.892052 -0.000000 -0.000000
95
root 19.201214 35.315783 -21.233139 -175.519476 18.753409 -173.148686
Spine -3.250245 4.914461 8.313873
Head 24.696189 -24.851252 3.727913
LeftShoulder -17.094337 -29.007165 14.074640
LeftArm -21.171707 -2.474826 -28.797351
LeftForeArm 6.618742 -0.000000 -1.885630
LeftHand -8.571467 -0.000000 -2.417031
LeftHandThumb1 -26.253704 0.000000 33.147579
RightShoulder -14.303012 -8.973161 -2.945856
RightArm 18.108268 36.913898 37.788957
RightForeArm -32.308094 -0.000000 5.112380
RightHand -4.817878 -0.000000 1.863130
RightHandThumb1 -24.326973 -0.000000 -32.862282
LeftUpLeg 10.709754 15.963832 9.047483
LeftLeg -11.573004 -0.000000 0.000000
LeftFoot 1.460234 32.077675 12.336094
LeftToeBase -133.240445 -0.000000 0.000000
RightUpLeg -10.312822 0.013847 5.129388
RightLeg 16.310753 -0.000000 -0.000000
RightFoot -21.964550 -31.809007 14.279253
RightToeBase 19.087154 -0.000000 -0.000000
96
root 19.227231 35.308518 -21.220863 -175.463433 19.446795 -173.162156
Spine -3.031921 4.981090 8.318485
Head 25.000795 -25.230477 3.673165
LeftShoulder -17.188232 -28.991208 14.046258
LeftArm -21.541515 -2.700645 -29.044745
LeftForeArm 6.667743 -0.000000 -1.945321
LeftHand -8.538425 -0.000000 -2.349780
LeftHandThumb1 -26.253704 0.000000 33.147579
RightShoulder -14.311999 -8.990614 -2.871051
RightArm 17.966080 36.671735 37.965821
RightForeArm -32.333322 -0.000000 5.106440
RightHand -4.850592 -0.000000 1.675114
RightHandThumb1 -24.326973 -0.000000 -32.862282
LeftUpLeg 10.782919 16.352736 9.027436
LeftLeg -11.454484 -0.000000 0.000000
LeftFoot 1.478024 32.330445 12.299548
LeftToeBase -132.945820 -0.000000 0.000000
RightUpLeg -10.490574 -0.295502 5.332688
RightLeg 16.307507 -0.000000 -0.000000
RightFoot -22.036284 -32.089045 14.220414
RightToeBase 19.223063 -0.000000 -0.000000
97
root 19.254336 35.300238 -21.214177 -175.392599 20.093687 -173.197474
Spine -2.865083 4.974692 8.301433
Head 25.303483 -25.549251 3.609172
LeftShoulder -17.325739 -28.994462 14.075786
LeftArm -21.941709 -2.803026 -29.286502
LeftForeArm 6.610386 -0.000000 -1.903733
LeftHand -8.506849 -0.000000 -2.522537
LeftHandThumb1 -26.253704 0.000000 33.147579
RightShoulder -14.321660 -8.992120 -2.810409
RightArm 17.852398 36.540339 38.141630
RightForeArm -32.343841 0.000000 4.978627
RightHand -4.711343 -0.000000 1.635514
RightHandThumb1 -24.326973 -0.000000 -32.862282
LeftUpLeg 10.807032 16.734936 8.983367
LeftLeg -11.299866 -0.000000 0.000000
LeftFoot 1.459828 32.585410 12.258592
LeftToeBase -132.694289 -0.000000 0.000000
RightUpLeg -10.641847 -0.670346 5.512087
RightLeg 16.235908 -0.000000 -0.000000
RightFoot -22.115048 -32.275609 14.156702
RightToeBase 19.298095 -0.000000 -0.000000
98
root 19.278834 35.291332 -21.214613 -175.383752 20.710937 -173.263570
Spine -2.659120 4.919753 8.293464
Head 25.637025 -25.833697 3.479838
LeftShoulder -17.438862 -28.870379 14.024441
LeftArm -22.239694 -3.079712 -29.431436
LeftForeArm 6.804989 -0.000000 -1.823545
LeftHand -8.542611 0.000000 -2.747025
LeftHandThumb1 -26.253704 0.000000 33.147579
RightShoulder -14.351513 -9.080752 -2.784181
RightArm 17.851356 36.602582 38.411912
RightForeArm -32.419809 0.000000 4.861987
RightHand -4.641173 -0.000000 1.629928
RightHandThumb1 -24.326973 -0.000000 -32.862282
LeftUpLeg 10.855937 17.089061 8.926636
LeftLeg -11.074368 -0.000000 0.000000
LeftFoot 1.407728 32.784584 12.226118
LeftToeBase -132.342264 -0.000000 0.000000
RightUpLeg -10.689171 -1.157391 5.649419
RightLeg 16.074338 -0.000000 -0.000000
RightFoot -22.213636 -32.356815 14.091340
RightToeBase 19.415354 -0.000000 -0.000000
99
root 19.305462 35.281419 -21.208836 -175.330522 21.347340 -173.364075
Spine -2.514229 4.903562 8.224883
Head 25.930454 -26.117512 3.396693
LeftShoulder -17.510482 -28.896217 14.036089
LeftArm -22.616664 -3.189720 -29.548375
LeftForeArm 6.844106 -0.000000 -1.769771
LeftHand -8.495273 -0.000000 -2.867500
LeftHandThumb1 -26.253704 0.000000 33.147579
RightShoulder -14.387776 -9.117792 -2.762896
RightArm 17.671329 36.485074 38.547583
RightForeArm -32.443233 0.000000 4.878305
RightHand -4.752639 -0.000000 1.742032
RightHandThumb1 -24.326973 -0.000000 -32.862282
LeftUpLeg 10.819753 17.460462 8.823447
LeftLeg -10.809216 -0.000000 0.000000
LeftFoot 1.354929 32.991567 12.195838
LeftToeBase -132.084256 -0.000000 0.000000
RightUpLeg -10.787177 -1.541989 5.749415
RightLeg 15.887479 -0.000000 -0.000000
RightFoot -22.358986 -32.441153 14.079141
RightToeBase 19.593103 -0.000000 -0.000000
